<svg width="17" height="21" viewBox="0 0 17 21" fill="none" xmlns="http://www.w3.org/2000/svg">
<circle cx="8.5" cy="8.5" r="8.5" fill="#E82127"/>
<path d="M8.5 21L6 13.6071V12.9643L8 12L11 13.2857L8.5 21Z" fill="#E82127"/>
<path d="M5.56661 12H4L6.85546 5.88664C7.00799 5.56067 7.22313 5.33156 7.50022 5.19869C7.77731 5.06644 8.13233 5 8.56661 5C8.99223 5 9.34392 5.06644 9.621 5.19869C9.89809 5.33094 10.1092 5.56067 10.2538 5.88664L13.0007 12H11.4221L8.9516 6.46718C8.879 6.31071 8.74645 6.2331 8.55395 6.2331C8.36146 6.2331 8.22425 6.31134 8.14432 6.46718L5.56661 12Z" fill="white"/>
<path d="M7.66541 10.388C7.66541 10.1068 7.90985 9.87891 8.21159 9.87891H8.78841C9.09014 9.87891 9.33459 10.1068 9.33459 10.388C9.33459 10.6693 9.09014 10.8972 8.78841 10.8972H8.21159C7.90985 10.8972 7.66541 10.6693 7.66541 10.388Z" fill="white"/>
</svg>
